<mxfile host="app.diagrams.net" agent="Mozilla/5.0 (X11; Linux x86_64) AppleWebKit/537.36 (KHTML, like Gecko) Chrome/139.0.0.0 Safari/537.36" version="28.1.2">
  <diagram name="Page-1" id="xgHQANqVIuzfKsIRAlwP">
    <mxGraphModel dx="1667" dy="933" grid="1" gridSize="10" guides="1" tooltips="1" connect="1" arrows="1" fold="1" page="1" pageScale="1" pageWidth="850" pageHeight="1100" math="0" shadow="0">
      <root>
        <mxCell id="0" />
        <mxCell id="1" parent="0" />
        <mxCell id="zqpEWKELfQ2SnmQN7NkH-31" value="" style="ellipse;whiteSpace=wrap;html=1;aspect=fixed;" vertex="1" parent="1">
          <mxGeometry x="980" y="280" width="220" height="220" as="geometry" />
        </mxCell>
        <mxCell id="zqpEWKELfQ2SnmQN7NkH-1" value="" style="rounded=1;whiteSpace=wrap;html=1;" vertex="1" parent="1">
          <mxGeometry x="100" y="330" width="570" height="560" as="geometry" />
        </mxCell>
        <mxCell id="zqpEWKELfQ2SnmQN7NkH-7" value="" style="rounded=1;whiteSpace=wrap;html=1;fillColor=none;" vertex="1" parent="1">
          <mxGeometry x="140" y="370" width="460" height="130" as="geometry" />
        </mxCell>
        <mxCell id="zqpEWKELfQ2SnmQN7NkH-17" value="" style="rounded=1;whiteSpace=wrap;html=1;fillColor=none;shadow=0;" vertex="1" parent="1">
          <mxGeometry x="665" y="190" width="295" height="130" as="geometry" />
        </mxCell>
        <mxCell id="zqpEWKELfQ2SnmQN7NkH-2" value="VisualVM" style="rounded=1;whiteSpace=wrap;html=1;fillStyle=hatch;fillColor=#f5f5f5;strokeColor=#666666;fontColor=#333333;" vertex="1" parent="1">
          <mxGeometry x="160" y="430" width="80" height="40" as="geometry" />
        </mxCell>
        <mxCell id="zqpEWKELfQ2SnmQN7NkH-3" value="Other" style="rounded=1;whiteSpace=wrap;html=1;fillColor=#e1d5e7;strokeColor=#9673a6;fillStyle=hatch;" vertex="1" parent="1">
          <mxGeometry x="250" y="380" width="120" height="70" as="geometry" />
        </mxCell>
        <mxCell id="zqpEWKELfQ2SnmQN7NkH-4" value="javap" style="rounded=1;whiteSpace=wrap;html=1;fillColor=#fff2cc;strokeColor=#d6b656;fillStyle=hatch;" vertex="1" parent="1">
          <mxGeometry x="380" y="380" width="90" height="40" as="geometry" />
        </mxCell>
        <mxCell id="zqpEWKELfQ2SnmQN7NkH-5" value="java" style="rounded=1;whiteSpace=wrap;html=1;fillColor=#ffe6cc;strokeColor=#d79b00;fillStyle=hatch;" vertex="1" parent="1">
          <mxGeometry x="480" y="430" width="90" height="45" as="geometry" />
        </mxCell>
        <mxCell id="zqpEWKELfQ2SnmQN7NkH-6" value="javac" style="rounded=1;whiteSpace=wrap;html=1;fillStyle=hatch;fillColor=#d5e8d4;strokeColor=#82b366;" vertex="1" parent="1">
          <mxGeometry x="480" y="380" width="80" height="40" as="geometry" />
        </mxCell>
        <mxCell id="zqpEWKELfQ2SnmQN7NkH-8" value="&lt;b&gt;Java Development Tools&lt;/b&gt;" style="text;html=1;align=center;verticalAlign=middle;whiteSpace=wrap;rounded=0;" vertex="1" parent="1">
          <mxGeometry x="150" y="340" width="150" height="30" as="geometry" />
        </mxCell>
        <mxCell id="zqpEWKELfQ2SnmQN7NkH-9" value="&lt;b&gt;Java Development Kit (JDK)&lt;/b&gt;" style="text;html=1;align=center;verticalAlign=middle;whiteSpace=wrap;rounded=0;" vertex="1" parent="1">
          <mxGeometry x="302.5" y="300" width="177.5" height="30" as="geometry" />
        </mxCell>
        <mxCell id="zqpEWKELfQ2SnmQN7NkH-10" value="*.kt" style="rounded=1;whiteSpace=wrap;html=1;fillColor=#f8cecc;strokeColor=#b85450;" vertex="1" parent="1">
          <mxGeometry x="850" y="240" width="90" height="40" as="geometry" />
        </mxCell>
        <mxCell id="zqpEWKELfQ2SnmQN7NkH-15" value="*.java" style="rounded=1;whiteSpace=wrap;html=1;fillColor=#f8cecc;strokeColor=#b85450;" vertex="1" parent="1">
          <mxGeometry x="680" y="240" width="90" height="40" as="geometry" />
        </mxCell>
        <mxCell id="zqpEWKELfQ2SnmQN7NkH-18" value="VSCode, Intellij Idea, notepad, etc." style="text;html=1;align=center;verticalAlign=middle;whiteSpace=wrap;rounded=0;" vertex="1" parent="1">
          <mxGeometry x="752.5" y="200" width="120" height="30" as="geometry" />
        </mxCell>
        <mxCell id="zqpEWKELfQ2SnmQN7NkH-21" value="Java byte code&lt;div&gt;*class&lt;/div&gt;" style="rounded=1;whiteSpace=wrap;html=1;fillColor=#dae8fc;fillStyle=hatch;strokeColor=#6c8ebf;" vertex="1" parent="1">
          <mxGeometry x="770" y="470" width="120" height="60" as="geometry" />
        </mxCell>
        <mxCell id="zqpEWKELfQ2SnmQN7NkH-22" value="" style="curved=1;endArrow=classic;html=1;rounded=0;entryX=0.014;entryY=0.346;entryDx=0;entryDy=0;dashed=1;entryPerimeter=0;" edge="1" parent="1" target="zqpEWKELfQ2SnmQN7NkH-31">
          <mxGeometry width="50" height="50" relative="1" as="geometry">
            <mxPoint x="900" y="280" as="sourcePoint" />
            <mxPoint x="990" y="350" as="targetPoint" />
            <Array as="points">
              <mxPoint x="950" y="280" />
              <mxPoint x="900" y="350" />
            </Array>
          </mxGeometry>
        </mxCell>
        <mxCell id="zqpEWKELfQ2SnmQN7NkH-23" value="" style="curved=1;endArrow=classic;html=1;rounded=0;dashed=1;exitX=0.5;exitY=1;exitDx=0;exitDy=0;entryX=1;entryY=0.25;entryDx=0;entryDy=0;" edge="1" parent="1" source="zqpEWKELfQ2SnmQN7NkH-15" target="zqpEWKELfQ2SnmQN7NkH-6">
          <mxGeometry width="50" height="50" relative="1" as="geometry">
            <mxPoint x="720" y="297" as="sourcePoint" />
            <mxPoint x="760" y="370" as="targetPoint" />
            <Array as="points">
              <mxPoint x="770" y="297" />
              <mxPoint x="720" y="367" />
            </Array>
          </mxGeometry>
        </mxCell>
        <mxCell id="zqpEWKELfQ2SnmQN7NkH-24" value="" style="curved=1;endArrow=classic;html=1;rounded=0;exitX=-0.005;exitY=0.423;exitDx=0;exitDy=0;entryX=0.5;entryY=0;entryDx=0;entryDy=0;exitPerimeter=0;dashed=1;" edge="1" parent="1" source="zqpEWKELfQ2SnmQN7NkH-31" target="zqpEWKELfQ2SnmQN7NkH-27">
          <mxGeometry width="50" height="50" relative="1" as="geometry">
            <mxPoint x="990" y="380" as="sourcePoint" />
            <mxPoint x="880" y="360" as="targetPoint" />
            <Array as="points">
              <mxPoint x="890" y="350" />
            </Array>
          </mxGeometry>
        </mxCell>
        <mxCell id="zqpEWKELfQ2SnmQN7NkH-25" value="" style="curved=1;endArrow=classic;html=1;rounded=0;exitX=1;exitY=0.75;exitDx=0;exitDy=0;entryX=0;entryY=0.5;entryDx=0;entryDy=0;dashed=1;" edge="1" parent="1" source="zqpEWKELfQ2SnmQN7NkH-6" target="zqpEWKELfQ2SnmQN7NkH-21">
          <mxGeometry width="50" height="50" relative="1" as="geometry">
            <mxPoint x="620" y="440" as="sourcePoint" />
            <mxPoint x="670" y="390" as="targetPoint" />
            <Array as="points">
              <mxPoint x="690" y="450" />
            </Array>
          </mxGeometry>
        </mxCell>
        <mxCell id="zqpEWKELfQ2SnmQN7NkH-26" value="" style="curved=1;endArrow=classic;html=1;rounded=0;entryX=0.023;entryY=0.338;entryDx=0;entryDy=0;dashed=1;exitX=1;exitY=0.5;exitDx=0;exitDy=0;entryPerimeter=0;" edge="1" parent="1" source="zqpEWKELfQ2SnmQN7NkH-15" target="zqpEWKELfQ2SnmQN7NkH-31">
          <mxGeometry width="50" height="50" relative="1" as="geometry">
            <mxPoint x="770" y="263.5" as="sourcePoint" />
            <mxPoint x="990" y="350" as="targetPoint" />
            <Array as="points">
              <mxPoint x="820" y="263.5" />
              <mxPoint x="770" y="333.5" />
            </Array>
          </mxGeometry>
        </mxCell>
        <mxCell id="zqpEWKELfQ2SnmQN7NkH-27" value="Kotlin byte code&lt;div&gt;*class&lt;/div&gt;" style="rounded=1;whiteSpace=wrap;html=1;fillColor=#dae8fc;fillStyle=hatch;strokeColor=#6c8ebf;" vertex="1" parent="1">
          <mxGeometry x="770" y="380" width="120" height="60" as="geometry" />
        </mxCell>
        <mxCell id="zqpEWKELfQ2SnmQN7NkH-28" value="" style="curved=1;endArrow=classic;html=1;rounded=0;exitX=0;exitY=0.5;exitDx=0;exitDy=0;entryX=1;entryY=0.5;entryDx=0;entryDy=0;dashed=1;" edge="1" parent="1" source="zqpEWKELfQ2SnmQN7NkH-27" target="zqpEWKELfQ2SnmQN7NkH-6">
          <mxGeometry width="50" height="50" relative="1" as="geometry">
            <mxPoint x="800" y="400" as="sourcePoint" />
            <mxPoint x="700" y="400" as="targetPoint" />
            <Array as="points">
              <mxPoint x="710" y="370" />
            </Array>
          </mxGeometry>
        </mxCell>
        <mxCell id="zqpEWKELfQ2SnmQN7NkH-32" value="" style="endArrow=none;html=1;rounded=0;entryX=0.5;entryY=0;entryDx=0;entryDy=0;" edge="1" parent="1" source="zqpEWKELfQ2SnmQN7NkH-29" target="zqpEWKELfQ2SnmQN7NkH-31">
          <mxGeometry width="50" height="50" relative="1" as="geometry">
            <mxPoint x="1090" y="390" as="sourcePoint" />
            <mxPoint x="1140" y="350" as="targetPoint" />
          </mxGeometry>
        </mxCell>
        <mxCell id="zqpEWKELfQ2SnmQN7NkH-33" value="" style="endArrow=none;html=1;rounded=0;exitX=0.081;exitY=0.754;exitDx=0;exitDy=0;exitPerimeter=0;" edge="1" parent="1" source="zqpEWKELfQ2SnmQN7NkH-31">
          <mxGeometry width="50" height="50" relative="1" as="geometry">
            <mxPoint x="1080" y="450" as="sourcePoint" />
            <mxPoint x="1090" y="390" as="targetPoint" />
          </mxGeometry>
        </mxCell>
        <mxCell id="zqpEWKELfQ2SnmQN7NkH-34" value="" style="endArrow=none;html=1;rounded=0;exitX=0.952;exitY=0.687;exitDx=0;exitDy=0;exitPerimeter=0;" edge="1" parent="1" source="zqpEWKELfQ2SnmQN7NkH-31">
          <mxGeometry width="50" height="50" relative="1" as="geometry">
            <mxPoint x="1190.1" y="424.22" as="sourcePoint" />
            <mxPoint x="1090" y="390" as="targetPoint" />
          </mxGeometry>
        </mxCell>
        <mxCell id="zqpEWKELfQ2SnmQN7NkH-35" value="" style="endArrow=none;html=1;rounded=0;entryX=0.5;entryY=0;entryDx=0;entryDy=0;" edge="1" parent="1" target="zqpEWKELfQ2SnmQN7NkH-29">
          <mxGeometry width="50" height="50" relative="1" as="geometry">
            <mxPoint x="1090" y="390" as="sourcePoint" />
            <mxPoint x="1090" y="280" as="targetPoint" />
          </mxGeometry>
        </mxCell>
        <mxCell id="zqpEWKELfQ2SnmQN7NkH-29" value="kotlinc" style="ellipse;whiteSpace=wrap;html=1;aspect=fixed;fillStyle=auto;fillColor=#d5e8d4;strokeColor=#82b366;" vertex="1" parent="1">
          <mxGeometry x="1050" y="350" width="80" height="80" as="geometry" />
        </mxCell>
        <mxCell id="zqpEWKELfQ2SnmQN7NkH-36" value="JVM" style="text;html=1;align=center;verticalAlign=middle;whiteSpace=wrap;rounded=0;" vertex="1" parent="1">
          <mxGeometry x="1000" y="340" width="60" height="30" as="geometry" />
        </mxCell>
        <mxCell id="zqpEWKELfQ2SnmQN7NkH-37" value="JS" style="text;html=1;align=center;verticalAlign=middle;whiteSpace=wrap;rounded=0;" vertex="1" parent="1">
          <mxGeometry x="1120" y="340" width="60" height="30" as="geometry" />
        </mxCell>
        <mxCell id="zqpEWKELfQ2SnmQN7NkH-38" value="Native" style="text;html=1;align=center;verticalAlign=middle;whiteSpace=wrap;rounded=0;" vertex="1" parent="1">
          <mxGeometry x="1070" y="445" width="60" height="30" as="geometry" />
        </mxCell>
        <mxCell id="zqpEWKELfQ2SnmQN7NkH-39" value="" style="rounded=1;whiteSpace=wrap;html=1;dashed=1;dashPattern=12 12;" vertex="1" parent="1">
          <mxGeometry x="130" y="530" width="500" height="300" as="geometry" />
        </mxCell>
        <mxCell id="zqpEWKELfQ2SnmQN7NkH-40" value="&lt;b&gt;JRE&lt;/b&gt;" style="text;html=1;align=center;verticalAlign=middle;whiteSpace=wrap;rounded=0;" vertex="1" parent="1">
          <mxGeometry x="345" y="500" width="60" height="30" as="geometry" />
        </mxCell>
        <mxCell id="zqpEWKELfQ2SnmQN7NkH-41" value="Java&amp;nbsp;&lt;div&gt;Class&lt;br&gt;Library&lt;/div&gt;" style="rounded=1;whiteSpace=wrap;html=1;fillStyle=hatch;fillColor=#d5e8d4;strokeColor=#82b366;" vertex="1" parent="1">
          <mxGeometry x="150" y="580" width="80" height="230" as="geometry" />
        </mxCell>
        <mxCell id="zqpEWKELfQ2SnmQN7NkH-42" value="./classes" style="text;html=1;align=center;verticalAlign=middle;whiteSpace=wrap;rounded=0;" vertex="1" parent="1">
          <mxGeometry x="170" y="595" width="60" height="30" as="geometry" />
        </mxCell>
        <mxCell id="zqpEWKELfQ2SnmQN7NkH-43" value="" style="rounded=1;whiteSpace=wrap;html=1;" vertex="1" parent="1">
          <mxGeometry x="240" y="580" width="370" height="230" as="geometry" />
        </mxCell>
        <mxCell id="zqpEWKELfQ2SnmQN7NkH-44" value="&lt;b&gt;JVM&lt;/b&gt;" style="text;html=1;align=center;verticalAlign=middle;whiteSpace=wrap;rounded=0;" vertex="1" parent="1">
          <mxGeometry x="380" y="550" width="60" height="30" as="geometry" />
        </mxCell>
        <mxCell id="zqpEWKELfQ2SnmQN7NkH-45" value="Class Loader" style="rounded=1;whiteSpace=wrap;html=1;fillColor=#dae8fc;strokeColor=#6c8ebf;fillStyle=hatch;" vertex="1" parent="1">
          <mxGeometry x="270" y="595" width="300" height="45" as="geometry" />
        </mxCell>
        <mxCell id="zqpEWKELfQ2SnmQN7NkH-46" value="Runtime Data Area" style="rounded=1;whiteSpace=wrap;html=1;fillColor=#f5f5f5;fontColor=#333333;strokeColor=#666666;fillStyle=hatch;" vertex="1" parent="1">
          <mxGeometry x="270" y="657.5" width="300" height="45" as="geometry" />
        </mxCell>
        <mxCell id="zqpEWKELfQ2SnmQN7NkH-47" value="Native&lt;div&gt;Methods&lt;br&gt;Libraries&lt;/div&gt;" style="rounded=1;whiteSpace=wrap;html=1;" vertex="1" parent="1">
          <mxGeometry x="270" y="720" width="90" height="60" as="geometry" />
        </mxCell>
        <mxCell id="zqpEWKELfQ2SnmQN7NkH-48" value="Native&lt;div&gt;Methods&lt;br&gt;Interface&amp;nbsp;&lt;/div&gt;&lt;div&gt;(JNI)&lt;/div&gt;" style="rounded=1;whiteSpace=wrap;html=1;" vertex="1" parent="1">
          <mxGeometry x="375" y="720" width="90" height="60" as="geometry" />
        </mxCell>
        <mxCell id="zqpEWKELfQ2SnmQN7NkH-64" style="edgeStyle=orthogonalEdgeStyle;rounded=0;orthogonalLoop=1;jettySize=auto;html=1;entryX=0;entryY=0.5;entryDx=0;entryDy=0;strokeColor=#CC0000;" edge="1" parent="1" source="zqpEWKELfQ2SnmQN7NkH-49" target="zqpEWKELfQ2SnmQN7NkH-55">
          <mxGeometry relative="1" as="geometry" />
        </mxCell>
        <mxCell id="zqpEWKELfQ2SnmQN7NkH-49" value="&lt;b&gt;Execution&lt;/b&gt;&lt;div&gt;&lt;b&gt;Engine&lt;/b&gt;&lt;/div&gt;" style="rounded=1;whiteSpace=wrap;html=1;fillColor=#f8cecc;strokeColor=#b85450;fillStyle=hatch;" vertex="1" parent="1">
          <mxGeometry x="480" y="720" width="90" height="60" as="geometry" />
        </mxCell>
        <mxCell id="zqpEWKELfQ2SnmQN7NkH-50" value="Operation System (OS)" style="rounded=1;whiteSpace=wrap;html=1;" vertex="1" parent="1">
          <mxGeometry x="110" y="920" width="400" height="60" as="geometry" />
        </mxCell>
        <mxCell id="zqpEWKELfQ2SnmQN7NkH-51" value="Hardware" style="rounded=1;whiteSpace=wrap;html=1;fillColor=#d5e8d4;strokeColor=#82b366;fillStyle=hatch;strokeWidth=3;" vertex="1" parent="1">
          <mxGeometry x="110" y="1010" width="660" height="60" as="geometry" />
        </mxCell>
        <mxCell id="zqpEWKELfQ2SnmQN7NkH-76" style="edgeStyle=orthogonalEdgeStyle;rounded=0;orthogonalLoop=1;jettySize=auto;html=1;entryX=0;entryY=0.5;entryDx=0;entryDy=0;" edge="1" parent="1" source="zqpEWKELfQ2SnmQN7NkH-52" target="zqpEWKELfQ2SnmQN7NkH-53">
          <mxGeometry relative="1" as="geometry">
            <mxPoint x="490" y="990" as="targetPoint" />
            <Array as="points">
              <mxPoint x="440" y="1000" />
            </Array>
          </mxGeometry>
        </mxCell>
        <mxCell id="zqpEWKELfQ2SnmQN7NkH-52" value="&lt;b&gt;Memory Allocation&lt;/b&gt;" style="rounded=1;whiteSpace=wrap;html=1;fillColor=#f8cecc;strokeColor=#b85450;fillStyle=hatch;" vertex="1" parent="1">
          <mxGeometry x="380" y="930" width="120" height="40" as="geometry" />
        </mxCell>
        <mxCell id="zqpEWKELfQ2SnmQN7NkH-53" value="Native&lt;div&gt;Memory&lt;/div&gt;" style="rounded=1;whiteSpace=wrap;html=1;fillColor=none;" vertex="1" parent="1">
          <mxGeometry x="520" y="970" width="120" height="60" as="geometry" />
        </mxCell>
        <mxCell id="zqpEWKELfQ2SnmQN7NkH-67" style="edgeStyle=orthogonalEdgeStyle;rounded=0;orthogonalLoop=1;jettySize=auto;html=1;entryX=0;entryY=0.5;entryDx=0;entryDy=0;strokeColor=#CC0000;" edge="1" parent="1" source="zqpEWKELfQ2SnmQN7NkH-54" target="zqpEWKELfQ2SnmQN7NkH-57">
          <mxGeometry relative="1" as="geometry" />
        </mxCell>
        <mxCell id="zqpEWKELfQ2SnmQN7NkH-54" value="Processor" style="rounded=1;whiteSpace=wrap;html=1;fillColor=none;" vertex="1" parent="1">
          <mxGeometry x="650" y="970" width="110" height="60" as="geometry" />
        </mxCell>
        <mxCell id="zqpEWKELfQ2SnmQN7NkH-65" style="edgeStyle=orthogonalEdgeStyle;rounded=0;orthogonalLoop=1;jettySize=auto;html=1;strokeColor=#CC0000;" edge="1" parent="1" source="zqpEWKELfQ2SnmQN7NkH-55" target="zqpEWKELfQ2SnmQN7NkH-54">
          <mxGeometry relative="1" as="geometry" />
        </mxCell>
        <mxCell id="zqpEWKELfQ2SnmQN7NkH-55" value="Machine&lt;div&gt;Code&lt;/div&gt;" style="rounded=1;whiteSpace=wrap;html=1;fillColor=#dae8fc;fillStyle=hatch;strokeColor=#6c8ebf;" vertex="1" parent="1">
          <mxGeometry x="720" y="720" width="120" height="60" as="geometry" />
        </mxCell>
        <mxCell id="zqpEWKELfQ2SnmQN7NkH-57" value="&lt;div&gt;$ kotlin run&lt;/div&gt;&lt;div&gt;&lt;span style=&quot;background-color: transparent; color: light-dark(rgb(0, 0, 0), rgb(255, 255, 255));&quot;&gt;$ Hello World!&lt;/span&gt;&lt;/div&gt;" style="rounded=0;whiteSpace=wrap;html=1;align=left;" vertex="1" parent="1">
          <mxGeometry x="920" y="880" width="180" height="90" as="geometry" />
        </mxCell>
        <mxCell id="zqpEWKELfQ2SnmQN7NkH-58" value="Terminal" style="text;html=1;align=center;verticalAlign=middle;whiteSpace=wrap;rounded=0;" vertex="1" parent="1">
          <mxGeometry x="970" y="850" width="60" height="30" as="geometry" />
        </mxCell>
        <mxCell id="zqpEWKELfQ2SnmQN7NkH-59" value="" style="curved=1;endArrow=classic;html=1;rounded=0;exitX=0;exitY=0.75;exitDx=0;exitDy=0;entryX=1;entryY=0.5;entryDx=0;entryDy=0;dashed=1;" edge="1" parent="1" source="zqpEWKELfQ2SnmQN7NkH-21" target="zqpEWKELfQ2SnmQN7NkH-5">
          <mxGeometry width="50" height="50" relative="1" as="geometry">
            <mxPoint x="690" y="540" as="sourcePoint" />
            <mxPoint x="740" y="490" as="targetPoint" />
            <Array as="points">
              <mxPoint x="660" y="520" />
              <mxPoint x="650" y="460" />
            </Array>
          </mxGeometry>
        </mxCell>
        <mxCell id="zqpEWKELfQ2SnmQN7NkH-60" value="" style="curved=1;endArrow=classic;html=1;rounded=0;exitX=0.5;exitY=1;exitDx=0;exitDy=0;entryX=1;entryY=0.25;entryDx=0;entryDy=0;dashed=1;" edge="1" parent="1" source="zqpEWKELfQ2SnmQN7NkH-5" target="zqpEWKELfQ2SnmQN7NkH-45">
          <mxGeometry width="50" height="50" relative="1" as="geometry">
            <mxPoint x="690" y="590" as="sourcePoint" />
            <mxPoint x="740" y="540" as="targetPoint" />
            <Array as="points">
              <mxPoint x="530" y="520" />
              <mxPoint x="650" y="590" />
            </Array>
          </mxGeometry>
        </mxCell>
        <mxCell id="zqpEWKELfQ2SnmQN7NkH-61" value="" style="curved=1;endArrow=classic;html=1;rounded=0;exitX=0;exitY=0.5;exitDx=0;exitDy=0;entryX=0;entryY=0.5;entryDx=0;entryDy=0;dashed=1;" edge="1" parent="1" source="zqpEWKELfQ2SnmQN7NkH-46" target="zqpEWKELfQ2SnmQN7NkH-45">
          <mxGeometry width="50" height="50" relative="1" as="geometry">
            <mxPoint x="250" y="660" as="sourcePoint" />
            <mxPoint x="300" y="610" as="targetPoint" />
            <Array as="points">
              <mxPoint x="250" y="670" />
              <mxPoint x="250" y="630" />
            </Array>
          </mxGeometry>
        </mxCell>
        <mxCell id="zqpEWKELfQ2SnmQN7NkH-62" value="" style="curved=1;endArrow=classic;html=1;rounded=0;exitX=1;exitY=0.5;exitDx=0;exitDy=0;entryX=1;entryY=0.5;entryDx=0;entryDy=0;dashed=1;" edge="1" parent="1" source="zqpEWKELfQ2SnmQN7NkH-45" target="zqpEWKELfQ2SnmQN7NkH-46">
          <mxGeometry width="50" height="50" relative="1" as="geometry">
            <mxPoint x="600" y="650" as="sourcePoint" />
            <mxPoint x="650" y="600" as="targetPoint" />
            <Array as="points">
              <mxPoint x="620" y="650" />
            </Array>
          </mxGeometry>
        </mxCell>
        <mxCell id="zqpEWKELfQ2SnmQN7NkH-63" value="" style="curved=1;endArrow=classic;html=1;rounded=0;exitX=1;exitY=0.5;exitDx=0;exitDy=0;entryX=1;entryY=0.25;entryDx=0;entryDy=0;dashed=1;" edge="1" parent="1" target="zqpEWKELfQ2SnmQN7NkH-49">
          <mxGeometry width="50" height="50" relative="1" as="geometry">
            <mxPoint x="570" y="690" as="sourcePoint" />
            <mxPoint x="570" y="752" as="targetPoint" />
            <Array as="points">
              <mxPoint x="590" y="700" />
              <mxPoint x="590" y="720" />
            </Array>
          </mxGeometry>
        </mxCell>
        <mxCell id="zqpEWKELfQ2SnmQN7NkH-69" value="" style="endArrow=classic;html=1;rounded=0;exitX=1;exitY=0.75;exitDx=0;exitDy=0;entryX=0;entryY=0.75;entryDx=0;entryDy=0;" edge="1" parent="1" source="zqpEWKELfQ2SnmQN7NkH-48" target="zqpEWKELfQ2SnmQN7NkH-49">
          <mxGeometry width="50" height="50" relative="1" as="geometry">
            <mxPoint x="470" y="760" as="sourcePoint" />
            <mxPoint x="520" y="710" as="targetPoint" />
          </mxGeometry>
        </mxCell>
        <mxCell id="zqpEWKELfQ2SnmQN7NkH-70" value="" style="endArrow=classic;html=1;rounded=0;exitX=0;exitY=0.25;exitDx=0;exitDy=0;entryX=1;entryY=0.25;entryDx=0;entryDy=0;" edge="1" parent="1" source="zqpEWKELfQ2SnmQN7NkH-49" target="zqpEWKELfQ2SnmQN7NkH-48">
          <mxGeometry width="50" height="50" relative="1" as="geometry">
            <mxPoint x="480" y="740" as="sourcePoint" />
            <mxPoint x="530" y="690" as="targetPoint" />
          </mxGeometry>
        </mxCell>
        <mxCell id="zqpEWKELfQ2SnmQN7NkH-71" value="" style="endArrow=classic;html=1;rounded=0;exitX=1;exitY=0.75;exitDx=0;exitDy=0;entryX=0;entryY=0.75;entryDx=0;entryDy=0;" edge="1" parent="1">
          <mxGeometry width="50" height="50" relative="1" as="geometry">
            <mxPoint x="360" y="770" as="sourcePoint" />
            <mxPoint x="375" y="770" as="targetPoint" />
          </mxGeometry>
        </mxCell>
        <mxCell id="zqpEWKELfQ2SnmQN7NkH-72" value="" style="endArrow=classic;html=1;rounded=0;exitX=0;exitY=0.25;exitDx=0;exitDy=0;entryX=1;entryY=0.25;entryDx=0;entryDy=0;" edge="1" parent="1">
          <mxGeometry width="50" height="50" relative="1" as="geometry">
            <mxPoint x="375" y="730" as="sourcePoint" />
            <mxPoint x="360" y="730" as="targetPoint" />
          </mxGeometry>
        </mxCell>
        <mxCell id="zqpEWKELfQ2SnmQN7NkH-73" value="" style="endArrow=classic;html=1;rounded=0;entryX=0.5;entryY=0;entryDx=0;entryDy=0;exitX=0.19;exitY=1.004;exitDx=0;exitDy=0;exitPerimeter=0;" edge="1" parent="1" source="zqpEWKELfQ2SnmQN7NkH-43" target="zqpEWKELfQ2SnmQN7NkH-50">
          <mxGeometry width="50" height="50" relative="1" as="geometry">
            <mxPoint x="320" y="810" as="sourcePoint" />
            <mxPoint x="370" y="760" as="targetPoint" />
          </mxGeometry>
        </mxCell>
        <mxCell id="zqpEWKELfQ2SnmQN7NkH-74" value="" style="curved=1;endArrow=classic;html=1;rounded=0;exitX=0.5;exitY=1;exitDx=0;exitDy=0;entryX=0.5;entryY=0;entryDx=0;entryDy=0;dashed=1;" edge="1" parent="1" source="zqpEWKELfQ2SnmQN7NkH-48" target="zqpEWKELfQ2SnmQN7NkH-52">
          <mxGeometry width="50" height="50" relative="1" as="geometry">
            <mxPoint x="440" y="850" as="sourcePoint" />
            <mxPoint x="490" y="800" as="targetPoint" />
            <Array as="points">
              <mxPoint x="390" y="840" />
              <mxPoint x="450" y="840" />
            </Array>
          </mxGeometry>
        </mxCell>
        <mxCell id="zqpEWKELfQ2SnmQN7NkH-75" style="edgeStyle=orthogonalEdgeStyle;rounded=0;orthogonalLoop=1;jettySize=auto;html=1;entryX=0.302;entryY=-0.018;entryDx=0;entryDy=0;entryPerimeter=0;" edge="1" parent="1" source="zqpEWKELfQ2SnmQN7NkH-50" target="zqpEWKELfQ2SnmQN7NkH-51">
          <mxGeometry relative="1" as="geometry" />
        </mxCell>
        <mxCell id="zqpEWKELfQ2SnmQN7NkH-77" value="RAM" style="text;html=1;align=center;verticalAlign=middle;whiteSpace=wrap;rounded=0;" vertex="1" parent="1">
          <mxGeometry x="570" y="935" width="60" height="30" as="geometry" />
        </mxCell>
      </root>
    </mxGraphModel>
  </diagram>
</mxfile>
